# xmcd
#
# Track frame offsets: 
#        150
#        14632
#        28457
#        44495
#        64742
#        79167
#        98307
#        112115
#        130150
#        148055
#        165627
#        197098
#
# Disc length: 3364 seconds
#
# Revision: 9
# Processed by: cddbd v1.5.2PL0 Copyright (c) Steve Scherf et al.
# Submitted via: ExactAudioCopy v0.99pb4
#
DISCID=aa0d220c
DTITLE=Mindy McCready - If I Don't Stay The Night
DYEAR=1997
DGENRE=Country
TTITLE0=What If I Do
TTITLE1=This Is Me
TTITLE2=If I Don't Stay The Night
TTITLE3=Cross Against The Moon
TTITLE4=For A Good Time Call
TTITLE5=Oh Romeo
TTITLE6=The Other Side Of This Kiss
TTITLE7=You'll Never Know
TTITLE8=Fine Art Of Holding A Woman
TTITLE9=Only A Whisper
TTITLE10=Long, Long Time
TTITLE11=datatrack
EXTD=YEAR: 1997
EXTT0=
EXTT1=
EXTT2=
EXTT3=
EXTT4=
EXTT5=
EXTT6=
EXTT7=
EXTT8=
EXTT9=
EXTT10=
EXTT11=
PLAYORDER=
